<?xml version="1.0" encoding="UTF-8" standalone="no"?>
<!DOCTYPE svg PUBLIC "-//W3C//DTD SVG 1.1//EN" "http://www.w3.org/Graphics/SVG/1.1/DTD/svg11.dtd">
<svg xmlns="http://www.w3.org/2000/svg" version="1.1" viewBox="0.00 0.00 266.00 265.00">
<g stroke-width="2.00" fill="none" stroke-linecap="butt">
<path stroke="#8696a0" vector-effect="non-scaling-stroke" d="
  M 191.97 36.27
  L 190.76 36.96"
/>
<path stroke="#8696a0" vector-effect="non-scaling-stroke" d="
  M 171.99 37.17
  Q 122.88 36.88 73.75 37.06
  Q 65.72 37.09 61.54 38.03
  Q 55.57 39.39 49.95 42.42
  Q 27.91 54.32 23.11 79.01
  Q 22.53 81.99 22.50 85.56
  Q 22.32 106.58 22.60 126.68
  C 22.64 129.47 22.32 132.38 22.41 135.22"
/>
<path stroke="#8696a0" vector-effect="non-scaling-stroke" d="
  M 53.01 208.53
  L 53.01 235.28
  Q 53.01 236.56 54.14 235.96
  L 91.00 216.52"
/>
<path stroke="#8696a0" vector-effect="non-scaling-stroke" d="
  M 231.25 135.80
  Q 231.36 135.76 231.47 135.66
  Q 231.69 135.46 231.69 135.15
  L 231.52 97.56"
/>
<path stroke="#8696a0" vector-effect="non-scaling-stroke" d="
  M 253.3907 55.5119
  A 10.47 10.47 0.0 0 0 242.9390 45.0236
  L 204.4591 44.9564
  A 10.47 10.47 0.0 0 0 193.9708 55.4081
  L 193.9693 56.2881
  A 10.47 10.47 0.0 0 0 204.4210 66.7764
  L 242.9009 66.8436
  A 10.47 10.47 0.0 0 0 253.3892 56.3919
  L 253.3907 55.5119"
/>
<path stroke="#8696a0" vector-effect="non-scaling-stroke" d="
  M 95.6106 128.5987
  A 17.82 17.53 -11.2 0 0 74.7251 114.8639
  A 17.82 17.53 -11.2 0 0 60.6494 135.5213
  A 17.82 17.53 -11.2 0 0 81.5349 149.2561
  A 17.82 17.53 -11.2 0 0 95.6106 128.5987"
/>
<path stroke="#8696a0" vector-effect="non-scaling-stroke" d="
  M 194.1742 131.3658
  A 18.01 17.45 -2.4 0 0 175.4493 114.6853
  A 18.01 17.45 -2.4 0 0 158.1858 132.8742
  A 18.01 17.45 -2.4 0 0 176.9107 149.5547
  A 18.01 17.45 -2.4 0 0 194.1742 131.3658"
/>
<path stroke="#8696a0" vector-effect="non-scaling-stroke" d="
  M 143.66 148.73
  C 145.82 144.70 145.64 138.79 139.71 138.71
  Q 128.11 138.55 117.18 138.67
  C 114.46 138.70 112.25 138.44 110.32 140.49
  C 108.47 142.44 109.14 145.36 110.14 147.59
  Q 115.05 158.53 126.35 159.03
  C 133.88 159.37 140.13 155.35 143.66 148.73"
/>
</g>
<path fill="#0e2d41" d="
  M 223.11 0.00
  L 244.28 0.00
  Q 253.14 2.44 252.95 10.63
  C 252.82 16.80 248.63 20.99 242.56 21.03
  Q 223.19 21.15 204.98 21.27
  Q 198.33 21.31 195.28 16.07
  C 193.06 12.26 193.56 6.76 196.67 3.44
  Q 199.73 0.18 204.75 0.21
  Q 213.94 0.27 223.11 0.00
  Z"
/>
<path fill="#0e2d41" d="
  M 191.97 36.27
  L 190.76 36.96
  L 171.99 37.17
  Q 122.88 36.88 73.75 37.06
  Q 65.72 37.09 61.54 38.03
  Q 55.57 39.39 49.95 42.42
  Q 27.91 54.32 23.11 79.01
  Q 22.53 81.99 22.50 85.56
  Q 22.32 106.58 22.60 126.68
  C 22.64 129.47 22.32 132.38 22.41 135.22
  C 21.94 144.56 21.58 156.01 22.16 163.58
  Q 23.54 181.79 35.74 195.98
  C 40.52 201.55 46.61 205.13 53.01 208.53
  L 53.01 235.28
  Q 53.01 236.56 54.14 235.96
  L 91.00 216.52
  Q 93.59 215.24 96.00 215.26
  Q 136.68 215.53 177.38 215.35
  Q 187.04 215.31 191.56 214.00
  C 200.90 211.30 212.03 204.60 218.15 196.92
  C 226.98 185.81 231.69 174.62 231.77 160.76
  Q 231.83 148.40 231.54 136.50
  Q 231.53 136.05 231.25 135.80
  Q 231.36 135.76 231.47 135.66
  Q 231.69 135.46 231.69 135.15
  L 231.52 97.56
  L 231.86 86.00
  A 1.21 1.21 0.0 0 1 233.25 84.84
  Q 244.32 86.50 253.22 80.49
  A 0.36 0.35 73.2 0 1 253.77 80.79
  Q 253.63 119.30 253.73 160.73
  Q 253.78 180.55 243.37 198.39
  Q 233.03 216.10 216.99 226.03
  Q 199.82 236.65 181.51 236.68
  Q 141.49 236.74 101.48 236.64
  Q 100.80 236.64 99.54 236.91
  Q 98.18 237.20 97.67 237.45
  Q 72.91 249.89 48.51 262.99
  Q 46.31 264.17 42.12 265.00
  L 39.18 265.00
  C 32.42 263.88 30.43 258.70 30.43 252.45
  Q 30.44 236.48 30.40 221.52
  A 2.51 2.50 -69.9 0 0 29.52 219.61
  C 12.90 205.50 2.54 187.49 0.57 165.49
  Q 0.27 162.20 0.00 158.89
  L 0.00 88.25
  Q 0.12 72.86 6.35 59.07
  C 16.77 36.03 37.89 18.47 63.27 15.69
  Q 66.85 15.30 83.25 15.28
  Q 130.43 15.24 176.84 15.25
  A 1.01 1.01 0.0 0 1 177.84 16.10
  Q 180.07 29.71 191.97 36.27
  Z"
/>
<path fill="#fefefe" d="
  M 266.00 54.93
  L 266.00 59.00
  Q 264.44 66.52 259.60 72.07
  Q 255.50 76.77 249.71 78.65
  Q 243.04 80.82 236.88 80.43
  Q 218.54 79.27 204.76 79.24
  Q 190.26 79.20 183.38 66.72
  Q 179.72 60.09 181.27 52.30
  Q 182.43 46.47 186.79 41.52
  Q 188.48 39.60 190.76 36.96
  L 191.97 36.27
  Q 200.07 33.44 204.37 33.29
  Q 232.80 32.30 242.01 32.99
  Q 262.35 34.52 266.00 54.93
  Z
  M 253.3907 55.5119
  A 10.47 10.47 0.0 0 0 242.9390 45.0236
  L 204.4591 44.9564
  A 10.47 10.47 0.0 0 0 193.9708 55.4081
  L 193.9693 56.2881
  A 10.47 10.47 0.0 0 0 204.4210 66.7764
  L 242.9009 66.8436
  A 10.47 10.47 0.0 0 0 253.3892 56.3919
  L 253.3907 55.5119
  Z"
/>
<path fill="#fefefe" d="
  M 171.99 37.17
  Q 171.51 55.68 171.84 74.00
  Q 172.10 88.74 184.47 96.24
  C 186.99 97.76 190.04 98.53 192.95 98.73
  Q 210.21 99.94 227.50 99.17
  Q 229.01 99.10 231.52 97.56
  L 231.69 135.15
  Q 231.69 135.46 231.47 135.66
  Q 231.36 135.76 231.25 135.80
  L 223.91 135.07
  A 0.93 0.92 1.3 0 0 222.89 136.04
  Q 223.45 146.10 222.87 155.70
  C 222.09 168.90 214.51 183.40 203.23 191.02
  Q 195.29 196.39 186.26 198.72
  Q 180.54 200.19 170.13 200.27
  Q 144.11 200.45 117.68 200.10
  C 114.72 200.06 109.96 200.35 107.75 202.04
  Q 99.40 208.41 92.06 213.55
  Q 90.94 214.32 91.00 216.52
  L 54.14 235.96
  Q 53.01 236.56 53.01 235.28
  L 53.01 208.53
  Q 53.55 201.24 53.04 193.99
  Q 52.93 192.49 51.63 191.65
  Q 30.25 177.93 29.86 151.86
  Q 29.74 143.72 30.13 136.57
  A 1.53 1.53 0.0 0 0 28.55 134.97
  L 22.41 135.22
  C 22.32 132.38 22.64 129.47 22.60 126.68
  Q 22.32 106.58 22.50 85.56
  Q 22.53 81.99 23.11 79.01
  Q 27.91 54.32 49.95 42.42
  Q 55.57 39.39 61.54 38.03
  Q 65.72 37.09 73.75 37.06
  Q 122.88 36.88 171.99 37.17
  Z
  M 95.6106 128.5987
  A 17.82 17.53 -11.2 0 0 74.7251 114.8639
  A 17.82 17.53 -11.2 0 0 60.6494 135.5213
  A 17.82 17.53 -11.2 0 0 81.5349 149.2561
  A 17.82 17.53 -11.2 0 0 95.6106 128.5987
  Z
  M 194.1742 131.3658
  A 18.01 17.45 -2.4 0 0 175.4493 114.6853
  A 18.01 17.45 -2.4 0 0 158.1858 132.8742
  A 18.01 17.45 -2.4 0 0 176.9107 149.5547
  A 18.01 17.45 -2.4 0 0 194.1742 131.3658
  Z
  M 143.66 148.73
  C 145.82 144.70 145.64 138.79 139.71 138.71
  Q 128.11 138.55 117.18 138.67
  C 114.46 138.70 112.25 138.44 110.32 140.49
  C 108.47 142.44 109.14 145.36 110.14 147.59
  Q 115.05 158.53 126.35 159.03
  C 133.88 159.37 140.13 155.35 143.66 148.73
  Z"
/>
<rect fill="#0e2d41" x="-29.71" y="-10.91" transform="translate(223.68,55.90) rotate(0.1)" width="59.42" height="21.82" rx="10.47"/>
<ellipse fill="#0e2d41" cx="0.00" cy="0.00" transform="translate(78.13,132.06) rotate(-11.2)" rx="17.82" ry="17.53"/>
<ellipse fill="#0e2d41" cx="0.00" cy="0.00" transform="translate(176.18,132.12) rotate(-2.4)" rx="18.01" ry="17.45"/>
<path fill="#0e2d41" d="
  M 143.66 148.73
  C 140.13 155.35 133.88 159.37 126.35 159.03
  Q 115.05 158.53 110.14 147.59
  C 109.14 145.36 108.47 142.44 110.32 140.49
  C 112.25 138.44 114.46 138.70 117.18 138.67
  Q 128.11 138.55 139.71 138.71
  C 145.64 138.79 145.82 144.70 143.66 148.73
  Z"
/>
</svg>
